solid OpenSCAD_Model
  facet normal 0 -1 0
    outer loop
      vertex 0 0 5
      vertex 0 0 0
      vertex 20 0 0
    endloop
  endfacet
  facet normal 0 -1 0
    outer loop
      vertex 20 0 5
      vertex 0 0 5
      vertex 20 0 0
    endloop
  endfacet
  facet normal 0 0 -1
    outer loop
      vertex 20 30.01 0
      vertex 20 0 0
      vertex 5 40.01 0
    endloop
  endfacet
  facet normal 0 0 -1
    outer loop
      vertex 20 70 0
      vertex 0 100.01 0
      vertex 20 100.01 0
    endloop
  endfacet
  facet normal 0 0 -1
    outer loop
      vertex 0 0 0
      vertex 0 100.01 0
      vertex 5 60 0
    endloop
  endfacet
  facet normal 0 0 -1
    outer loop
      vertex 0 0 0
      vertex 5 60 0
      vertex 5 40.01 0
    endloop
  endfacet
  facet normal 0 0 -1
    outer loop
      vertex 0 0 0
      vertex 5 40.01 0
      vertex 20 0 0
    endloop
  endfacet
  facet normal 0 0 -1
    outer loop
      vertex 5 60 0
      vertex 0 100.01 0
      vertex 20 70 0
    endloop
  endfacet
  facet normal -1 0 0
    outer loop
      vertex 0 0 0
      vertex 0 0 5
      vertex 0 100.01 0
    endloop
  endfacet
  facet normal -1 0 0
    outer loop
      vertex 0 100.01 0
      vertex 0 0 5
      vertex 0 40 5
    endloop
  endfacet
  facet normal -1 0 0
    outer loop
      vertex 0 60.01 5
      vertex 0 40 5
      vertex 0 40 20
    endloop
  endfacet
  facet normal -1 0 0
    outer loop
      vertex 0 100.01 0
      vertex 0 40 5
      vertex 0 60.01 5
    endloop
  endfacet
  facet normal -1 0 0
    outer loop
      vertex 0 100.01 5
      vertex 0 100.01 0
      vertex 0 60.01 5
    endloop
  endfacet
  facet normal -1 0 0
    outer loop
      vertex 0 60.01 5
      vertex 0 40 20
      vertex 0 60 30
    endloop
  endfacet
  facet normal -1 0 0
    outer loop
      vertex 0 60.01 5
      vertex 0 60 30
      vertex 0 60.01 30
    endloop
  endfacet
  facet normal 0 0 1
    outer loop
      vertex 0 40 5
      vertex 0 0 5
      vertex 20 0 5
    endloop
  endfacet
  facet normal 0 0 1
    outer loop
      vertex 5 40 5
      vertex 0 40 5
      vertex 20 30.01 5
    endloop
  endfacet
  facet normal 0 0 1
    outer loop
      vertex 20 30.01 5
      vertex 0 40 5
      vertex 20 0 5
    endloop
  endfacet
  facet normal 0 0 1
    outer loop
      vertex 5 40.01 5
      vertex 5 40 5
      vertex 20 30.01 5
    endloop
  endfacet
  facet normal 1 0 0
    outer loop
      vertex 20 0 5
      vertex 20 0 0
      vertex 20 30.01 0
    endloop
  endfacet
  facet normal 1 0 0
    outer loop
      vertex 20 30.01 5
      vertex 20 0 5
      vertex 20 30.01 0
    endloop
  endfacet
  facet normal 0.5547 0.83205 0
    outer loop
      vertex 5 40.01 0
      vertex 5 40.01 5
      vertex 20 30.01 0
    endloop
  endfacet
  facet normal 0.5547 0.83205 0
    outer loop
      vertex 20 30.01 0
      vertex 5 40.01 5
      vertex 20 30.01 5
    endloop
  endfacet
  facet normal 1 0 0
    outer loop
      vertex 5 60 5
      vertex 5 60.01 5
      vertex 5 40 20
    endloop
  endfacet
  facet normal 1 0 0
    outer loop
      vertex 5 40 20
      vertex 5 40 5
      vertex 5 40.01 5
    endloop
  endfacet
  facet normal 1 0 0
    outer loop
      vertex 5 60 0
      vertex 5 40 20
      vertex 5 40.01 5
    endloop
  endfacet
  facet normal 1 0 0
    outer loop
      vertex 5 40.01 0
      vertex 5 60 0
      vertex 5 40.01 5
    endloop
  endfacet
  facet normal 1 0 0
    outer loop
      vertex 5 60 0
      vertex 5 60 5
      vertex 5 40 20
    endloop
  endfacet
  facet normal 1 0 0
    outer loop
      vertex 5 60.01 5
      vertex 5 60.01 30
      vertex 5 40 20
    endloop
  endfacet
  facet normal 1 0 0
    outer loop
      vertex 5 60.01 30
      vertex 5 60 30
      vertex 5 40 20
    endloop
  endfacet
  facet normal 0.5547 -0.83205 0
    outer loop
      vertex 5 60 5
      vertex 5 60 0
      vertex 20 70 0
    endloop
  endfacet
  facet normal 0.5547 -0.83205 0
    outer loop
      vertex 20 70 5
      vertex 5 60 5
      vertex 20 70 0
    endloop
  endfacet
  facet normal 1 0 0
    outer loop
      vertex 20 70 5
      vertex 20 70 0
      vertex 20 100.01 0
    endloop
  endfacet
  facet normal 1 0 0
    outer loop
      vertex 20 100.01 5
      vertex 20 70 5
      vertex 20 100.01 0
    endloop
  endfacet
  facet normal 0 1 0
    outer loop
      vertex 0 100.01 0
      vertex 0 100.01 5
      vertex 20 100.01 0
    endloop
  endfacet
  facet normal 0 1 0
    outer loop
      vertex 20 100.01 0
      vertex 0 100.01 5
      vertex 20 100.01 5
    endloop
  endfacet
  facet normal 0 0 1
    outer loop
      vertex 0 100.01 5
      vertex 0 60.01 5
      vertex 5 60.01 5
    endloop
  endfacet
  facet normal 0 0 1
    outer loop
      vertex 20 70 5
      vertex 0 100.01 5
      vertex 5 60.01 5
    endloop
  endfacet
  facet normal 0 0 1
    outer loop
      vertex 5 60 5
      vertex 20 70 5
      vertex 5 60.01 5
    endloop
  endfacet
  facet normal 0 0 1
    outer loop
      vertex 20 70 5
      vertex 20 100.01 5
      vertex 0 100.01 5
    endloop
  endfacet
  facet normal 0 1 0
    outer loop
      vertex 0 60.01 5
      vertex 0 60.01 30
      vertex 5 60.01 5
    endloop
  endfacet
  facet normal 0 1 0
    outer loop
      vertex 5 60.01 5
      vertex 0 60.01 30
      vertex 5 60.01 30
    endloop
  endfacet
  facet normal 0 0 1
    outer loop
      vertex 0 60.01 30
      vertex 0 60 30
      vertex 5 60 30
    endloop
  endfacet
  facet normal 0 0 1
    outer loop
      vertex 5 60.01 30
      vertex 0 60.01 30
      vertex 5 60 30
    endloop
  endfacet
  facet normal 0 -0.447214 0.894427
    outer loop
      vertex 0 60 30
      vertex 0 40 20
      vertex 5 40 20
    endloop
  endfacet
  facet normal 0 -0.447214 0.894427
    outer loop
      vertex 5 60 30
      vertex 0 60 30
      vertex 5 40 20
    endloop
  endfacet
  facet normal 0 -1 0
    outer loop
      vertex 0 40 20
      vertex 0 40 5
      vertex 5 40 5
    endloop
  endfacet
  facet normal 0 -1 0
    outer loop
      vertex 5 40 20
      vertex 0 40 20
      vertex 5 40 5
    endloop
  endfacet
endsolid OpenSCAD_Model
