solid OpenSCAD_Model
  facet normal -1 0 0
    outer loop
      vertex -10 30 0
      vertex -10 30 20
      vertex -10 40.01 0
    endloop
  endfacet
  facet normal -1 0 0
    outer loop
      vertex -10 40.01 0
      vertex -10 30 20
      vertex -10 40.01 20
    endloop
  endfacet
  facet normal -0.894427 -0.447214 0
    outer loop
      vertex -10 30 0
      vertex -5 20 0
      vertex -10 30 20
    endloop
  endfacet
  facet normal -0.894427 -0.447214 0
    outer loop
      vertex -10 30 20
      vertex -5 20 0
      vertex -5 20 10
    endloop
  endfacet
  facet normal 0 0 -1
    outer loop
      vertex -10 30 0
      vertex -10 40.01 0
      vertex -5 20 0
    endloop
  endfacet
  facet normal 0 0 -1
    outer loop
      vertex -5 20 0
      vertex -10 40.01 0
      vertex -5 50.01 0
    endloop
  endfacet
  facet normal 0 0 -1
    outer loop
      vertex -5 50.01 0
      vertex -5 70.01 0
      vertex 5 70.01 0
    endloop
  endfacet
  facet normal 0 0 -1
    outer loop
      vertex -5 50.01 0
      vertex 5 70.01 0
      vertex -5 20 0
    endloop
  endfacet
  facet normal 0 0 -1
    outer loop
      vertex -5 20 0
      vertex 5 70.01 0
      vertex 5 50.01 0
    endloop
  endfacet
  facet normal 0 0 -1
    outer loop
      vertex -5 20 0
      vertex 5 50.01 0
      vertex 10 40.01 0
    endloop
  endfacet
  facet normal 0 0 -1
    outer loop
      vertex -5 20 0
      vertex 10 40.01 0
      vertex 10 30 0
    endloop
  endfacet
  facet normal 0 0 -1
    outer loop
      vertex -5 20 0
      vertex 10 30 0
      vertex 5 20 0
    endloop
  endfacet
  facet normal 0 0 -1
    outer loop
      vertex -5 20 0
      vertex 5 20 0
      vertex 5 0 0
    endloop
  endfacet
  facet normal 0 0 -1
    outer loop
      vertex -5 20 0
      vertex 5 0 0
      vertex -5 0 0
    endloop
  endfacet
  facet normal -0.894427 0.447214 0
    outer loop
      vertex -10 40.01 0
      vertex -10 40.01 20
      vertex -5 50.01 0
    endloop
  endfacet
  facet normal -0.894427 0.447214 0
    outer loop
      vertex -5 50.01 0
      vertex -10 40.01 20
      vertex -5 50.01 10
    endloop
  endfacet
  facet normal 0 0 1
    outer loop
      vertex -10 40.01 20
      vertex -10 30 20
      vertex 10 30 20
    endloop
  endfacet
  facet normal 0 0 1
    outer loop
      vertex 10 40.01 20
      vertex -10 40.01 20
      vertex 10 30 20
    endloop
  endfacet
  facet normal 0 0.707107 0.707107
    outer loop
      vertex -10 40.01 20
      vertex 10 40.01 20
      vertex -5 50.01 10
    endloop
  endfacet
  facet normal 0 0.707107 0.707107
    outer loop
      vertex -5 50.01 10
      vertex 10 40.01 20
      vertex 5 50.01 10
    endloop
  endfacet
  facet normal 0 -0.707107 0.707107
    outer loop
      vertex 10 30 20
      vertex -10 30 20
      vertex -5 20 10
    endloop
  endfacet
  facet normal 0 -0.707107 0.707107
    outer loop
      vertex 5 20 10
      vertex 10 30 20
      vertex -5 20 10
    endloop
  endfacet
  facet normal 0 0 1
    outer loop
      vertex -5 20 10
      vertex -5 0 10
      vertex 5 0 10
    endloop
  endfacet
  facet normal 0 0 1
    outer loop
      vertex 5 20 10
      vertex -5 20 10
      vertex 5 0 10
    endloop
  endfacet
  facet normal -1 0 0
    outer loop
      vertex -5 0 0
      vertex -5 0 10
      vertex -5 20 0
    endloop
  endfacet
  facet normal -1 0 0
    outer loop
      vertex -5 20 0
      vertex -5 0 10
      vertex -5 20 10
    endloop
  endfacet
  facet normal 0 -1 0
    outer loop
      vertex -5 0 10
      vertex -5 0 0
      vertex 5 0 0
    endloop
  endfacet
  facet normal 0 -1 0
    outer loop
      vertex 5 0 10
      vertex -5 0 10
      vertex 5 0 0
    endloop
  endfacet
  facet normal 1 0 0
    outer loop
      vertex 5 0 10
      vertex 5 0 0
      vertex 5 20 0
    endloop
  endfacet
  facet normal 1 0 0
    outer loop
      vertex 5 20 10
      vertex 5 0 10
      vertex 5 20 0
    endloop
  endfacet
  facet normal 0.894427 -0.447214 0
    outer loop
      vertex 5 20 10
      vertex 5 20 0
      vertex 10 30 0
    endloop
  endfacet
  facet normal 0.894427 -0.447214 0
    outer loop
      vertex 10 30 20
      vertex 5 20 10
      vertex 10 30 0
    endloop
  endfacet
  facet normal 1 0 0
    outer loop
      vertex 10 30 20
      vertex 10 30 0
      vertex 10 40.01 0
    endloop
  endfacet
  facet normal 1 0 0
    outer loop
      vertex 10 40.01 20
      vertex 10 30 20
      vertex 10 40.01 0
    endloop
  endfacet
  facet normal 0.894427 0.447214 0
    outer loop
      vertex 10 40.01 0
      vertex 5 50.01 0
      vertex 5 50.01 10
    endloop
  endfacet
  facet normal 0.894427 0.447214 0
    outer loop
      vertex 10 40.01 20
      vertex 10 40.01 0
      vertex 5 50.01 10
    endloop
  endfacet
  facet normal 1 0 0
    outer loop
      vertex 5 50.01 10
      vertex 5 50.01 0
      vertex 5 70.01 0
    endloop
  endfacet
  facet normal 1 0 0
    outer loop
      vertex 5 70.01 10
      vertex 5 50.01 10
      vertex 5 70.01 0
    endloop
  endfacet
  facet normal 0 1 0
    outer loop
      vertex -5 70.01 0
      vertex -5 70.01 10
      vertex 5 70.01 0
    endloop
  endfacet
  facet normal 0 1 0
    outer loop
      vertex 5 70.01 0
      vertex -5 70.01 10
      vertex 5 70.01 10
    endloop
  endfacet
  facet normal -1 0 0
    outer loop
      vertex -5 50.01 0
      vertex -5 50.01 10
      vertex -5 70.01 0
    endloop
  endfacet
  facet normal -1 0 0
    outer loop
      vertex -5 70.01 0
      vertex -5 50.01 10
      vertex -5 70.01 10
    endloop
  endfacet
  facet normal 0 0 1
    outer loop
      vertex -5 70.01 10
      vertex -5 50.01 10
      vertex 5 50.01 10
    endloop
  endfacet
  facet normal 0 0 1
    outer loop
      vertex 5 70.01 10
      vertex -5 70.01 10
      vertex 5 50.01 10
    endloop
  endfacet
endsolid OpenSCAD_Model
