solid OpenSCAD_Model
  facet normal 0 -1 0
    outer loop
      vertex 0 0 10
      vertex 0 0 0
      vertex 10 0 0
    endloop
  endfacet
  facet normal 0 -1 0
    outer loop
      vertex 10 0 10
      vertex 0 0 10
      vertex 10 0 0
    endloop
  endfacet
  facet normal 0 0 -1
    outer loop
      vertex 0 0 0
      vertex 0 50.01 0
      vertex 10 0 0
    endloop
  endfacet
  facet normal 0 0 -1
    outer loop
      vertex 10 0 0
      vertex 0 50.01 0
      vertex 10 50.01 0
    endloop
  endfacet
  facet normal 0 0 -1
    outer loop
      vertex 10 0 0
      vertex 10 50.01 0
      vertex 20 25.01 0
    endloop
  endfacet
  facet normal 0 0 -1
    outer loop
      vertex 10 0 0
      vertex 20 25.01 0
      vertex 20 25 0
    endloop
  endfacet
  facet normal -1 0 0
    outer loop
      vertex 0 0 0
      vertex 0 0 10
      vertex 0 50.01 0
    endloop
  endfacet
  facet normal -1 0 0
    outer loop
      vertex 0 50.01 0
      vertex 0 0 10
      vertex 0 25 20
    endloop
  endfacet
  facet normal -1 0 0
    outer loop
      vertex 0 50.01 0
      vertex 0 25 20
      vertex 0 25.01 20
    endloop
  endfacet
  facet normal -1 0 0
    outer loop
      vertex 0 50.01 0
      vertex 0 25.01 20
      vertex 0 50.01 10
    endloop
  endfacet
  facet normal 0 -0.371391 0.928477
    outer loop
      vertex 0 25 20
      vertex 0 0 10
      vertex 10 0 10
    endloop
  endfacet
  facet normal 0 -0.371391 0.928477
    outer loop
      vertex 20 25 20
      vertex 0 25 20
      vertex 10 0 10
    endloop
  endfacet
  facet normal 0.928477 -0.371391 0
    outer loop
      vertex 10 0 10
      vertex 10 0 0
      vertex 20 25 0
    endloop
  endfacet
  facet normal 0.928477 -0.371391 0
    outer loop
      vertex 20 25 20
      vertex 10 0 10
      vertex 20 25 0
    endloop
  endfacet
  facet normal 1 0 0
    outer loop
      vertex 20 25 20
      vertex 20 25 0
      vertex 20 25.01 0
    endloop
  endfacet
  facet normal 1 0 0
    outer loop
      vertex 20 25.01 20
      vertex 20 25 20
      vertex 20 25.01 0
    endloop
  endfacet
  facet normal 0.928477 0.371391 0
    outer loop
      vertex 20 25.01 0
      vertex 10 50.01 0
      vertex 10 50.01 10
    endloop
  endfacet
  facet normal 0.928477 0.371391 0
    outer loop
      vertex 20 25.01 20
      vertex 20 25.01 0
      vertex 10 50.01 10
    endloop
  endfacet
  facet normal 0 1 0
    outer loop
      vertex 0 50.01 0
      vertex 0 50.01 10
      vertex 10 50.01 0
    endloop
  endfacet
  facet normal 0 1 0
    outer loop
      vertex 10 50.01 0
      vertex 0 50.01 10
      vertex 10 50.01 10
    endloop
  endfacet
  facet normal 0 0.371391 0.928477
    outer loop
      vertex 0 50.01 10
      vertex 0 25.01 20
      vertex 20 25.01 20
    endloop
  endfacet
  facet normal 0 0.371391 0.928477
    outer loop
      vertex 10 50.01 10
      vertex 0 50.01 10
      vertex 20 25.01 20
    endloop
  endfacet
  facet normal 0 0 1
    outer loop
      vertex 0 25.01 20
      vertex 0 25 20
      vertex 20 25 20
    endloop
  endfacet
  facet normal 0 0 1
    outer loop
      vertex 20 25.01 20
      vertex 0 25.01 20
      vertex 20 25 20
    endloop
  endfacet
endsolid OpenSCAD_Model
