solid OpenSCAD_Model
  facet normal 0 -1 0
    outer loop
      vertex 0 0 0
      vertex 10 0 0
      vertex 10 0 10
    endloop
  endfacet
  facet normal 0 -1 0
    outer loop
      vertex 0 0 10
      vertex 0 0 0
      vertex 10 0 10
    endloop
  endfacet
  facet normal -1 0 0
    outer loop
      vertex 0 0 10
      vertex 0 50 20
      vertex 0 0 0
    endloop
  endfacet
  facet normal -1 0 0
    outer loop
      vertex 0 0 0
      vertex 0 50 20
      vertex 0 50.01 20
    endloop
  endfacet
  facet normal -1 0 0
    outer loop
      vertex 0 0 0
      vertex 0 50.01 20
      vertex 0 50.01 0
    endloop
  endfacet
  facet normal 0 -0.196116 0.980581
    outer loop
      vertex 0 0 10
      vertex 10 0 10
      vertex 10 50 20
    endloop
  endfacet
  facet normal 0 -0.196116 0.980581
    outer loop
      vertex 0 50 20
      vertex 0 0 10
      vertex 10 50 20
    endloop
  endfacet
  facet normal 0 0 -1
    outer loop
      vertex 0 50.01 0
      vertex 10 50.01 0
      vertex 0 0 0
    endloop
  endfacet
  facet normal 0 0 -1
    outer loop
      vertex 0 0 0
      vertex 10 50.01 0
      vertex 10 0 0
    endloop
  endfacet
  facet normal 1 0 0
    outer loop
      vertex 10 0 0
      vertex 10 50.01 0
      vertex 10 50.01 20
    endloop
  endfacet
  facet normal 1 0 0
    outer loop
      vertex 10 0 10
      vertex 10 0 0
      vertex 10 50 20
    endloop
  endfacet
  facet normal 1 0 0
    outer loop
      vertex 10 50 20
      vertex 10 0 0
      vertex 10 50.01 20
    endloop
  endfacet
  facet normal 0 1 0
    outer loop
      vertex 0 50.01 20
      vertex 10 50.01 20
      vertex 0 50.01 0
    endloop
  endfacet
  facet normal 0 1 0
    outer loop
      vertex 0 50.01 0
      vertex 10 50.01 20
      vertex 10 50.01 0
    endloop
  endfacet
  facet normal 0 0 1
    outer loop
      vertex 0 50 20
      vertex 10 50 20
      vertex 10 50.01 20
    endloop
  endfacet
  facet normal 0 0 1
    outer loop
      vertex 0 50.01 20
      vertex 0 50 20
      vertex 10 50.01 20
    endloop
  endfacet
endsolid OpenSCAD_Model
